<?xml version="1.0" encoding="UTF-8" standalone="no"?>


<!-- Uploaded to: SVG Repo, www.svgrepo.com, Generator: SVG Repo Mixer Tools -->
<svg 
   xmlns:dc="http://purl.org/dc/elements/1.1/"
   xmlns:cc="http://creativecommons.org/ns#"
   xmlns:rdf="http://www.w3.org/1999/02/22-rdf-syntax-ns#"
   xmlns:svg="http://www.w3.org/2000/svg"
   xmlns="http://www.w3.org/2000/svg"
   xmlns:sodipodi="http://sodipodi.sourceforge.net/DTD/sodipodi-0.dtd"
   xmlns:inkscape="http://www.inkscape.org/namespaces/inkscape"
   width="30"
   height="30"
   viewBox="0 0 30 30"
   version="1.1"
   id="svg822"
   inkscape:version="0.92.4 (f8dce91, 2019-08-02)"
   sodipodi:docname="usb.svg">
  <defs
     id="defs816">
    <inkscape:path-effect
       effect="bspline"
       id="path-effect1025"
       is_visible="true"
       weight="33.333333"
       steps="2"
       helper_size="0"
       apply_no_weight="true"
       apply_with_weight="true"
       only_selected="false" />
    <inkscape:path-effect
       effect="bspline"
       id="path-effect1021"
       is_visible="true"
       weight="33.333333"
       steps="2"
       helper_size="0"
       apply_no_weight="true"
       apply_with_weight="true"
       only_selected="false" />
  </defs>
  <sodipodi:namedview
     id="base"
     pagecolor="#ffffff"
     bordercolor="#666666"
     borderopacity="1.0"
     inkscape:pageopacity="0.0"
     inkscape:pageshadow="2"
     inkscape:zoom="32"
     inkscape:cx="13.352623"
     inkscape:cy="19.90905"
     inkscape:document-units="px"
     inkscape:current-layer="layer1"
     showgrid="true"
     units="px"
     inkscape:window-width="1366"
     inkscape:window-height="713"
     inkscape:window-x="0"
     inkscape:window-y="0"
     inkscape:window-maximized="1"
     inkscape:lockguides="true">
    <inkscape:grid
       type="xygrid"
       id="grid816" />
  </sodipodi:namedview>
  <metadata
     id="metadata819">
    <rdf:RDF>
      <cc:Work
         rdf:about="">
        <dc:format>image/svg+xml</dc:format>
        <dc:type
           rdf:resource="http://purl.org/dc/dcmitype/StillImage" />
        <dc:title>
</dc:title>
      </cc:Work>
    </rdf:RDF>
  </metadata>
  <g
     inkscape:label="Layer 1"
     inkscape:groupmode="layer"
     id="layer1"
     transform="translate(0,-289.0625)">
    <path
       style="opacity:0.87000002;fill:#000000;fill-opacity:1;stroke:none;stroke-width:0.5;stroke-miterlimit:4;stroke-dasharray:none;stroke-opacity:1"
       d="M 15 3 L 12 7 L 13 7 L 14 7 L 14 19 L 10 15 L 10 13.978516 C 10.617711 13.621886 10.99874 12.963271 11 12.25 C 11 11.14543 10.104569 10.25 9 10.25 C 7.8954305 10.25 7 11.14543 7 12.25 C 7.0005645 12.96397 7.3816867 13.623489 8 13.980469 L 8 15 L 8 15.828125 L 14 21.828125 L 14 23.271484 C 13.38229 23.628117 13.001261 24.286732 13 25 C 13 26.104569 13.895431 27 15 27 C 16.104569 27 17 26.104569 17 25 C 16.999443 24.296367 16.626007 23.649458 16.023438 23.289062 L 16 22 L 16 21 L 22 14.828125 L 22 14 L 22 13 L 23 13 L 23 9 L 19 9 L 19 13 L 20 13 L 20 14 L 16 18.126953 L 16 7 L 17 7 L 18 7 L 15 3 z "
       transform="translate(0,289.0625)"
       id="rect1017" />
  </g>
</svg>